<svg aria-hidden="true" style="position: absolute; width: 0; height: 0; overflow: hidden;" version="1.1" xmlns="http://www.w3.org/2000/svg" xmlns:xlink="http://www.w3.org/1999/xlink">
<defs>
<symbol id="icon-right" viewBox="0 0 32 32">
<path fill="#ff9100" style="fill: var(--color1, #ff9100)" d="M20.697 0c6.245 0 11.303 5.058 11.303 11.303v9.394c0 6.245-5.058 11.303-11.303 11.303h-9.394c-6.245 0-11.303-5.058-11.303-11.303v-9.394c0-6.245 5.058-11.303 11.303-11.303h9.394z"></path>
<path fill="#ff7900" style="fill: var(--color2, #ff7900)" d="M11.303 32c-6.245 0-11.303-5.058-11.303-11.303v-9.394c0-6.245 5.058-11.303 11.303-11.303h9.394c6.245 0 11.303 5.058 11.303 11.303z"></path>
<path fill="#ff6700" style="fill: var(--color3, #ff6700)" d="M0 11.303c0-6.245 5.058-11.303 11.303-11.303h9.394c6.245 0 11.303 5.058 11.303 11.303z"></path>
<path fill="#ff6700" style="fill: var(--color3, #ff6700)" d="M17.703 12.439c-0.31 0.31-0.31 0.774 0 1.084l1.755 1.755h-7.019c-0.413 0-0.774 0.361-0.774 0.774s0.31 0.774 0.774 0.774h6.968l-1.703 1.703c-0.31 0.31-0.31 0.774 0 1.084s0.774 0.31 1.084 0l2.994-2.994c0.155-0.155 0.206-0.361 0.206-0.516s-0.052-0.361-0.206-0.516l-2.994-2.994c-0.31-0.413-0.826-0.413-1.084-0.155z"></path>
<path fill="#fff" style="fill: var(--color4, #fff)" d="M16.826 12.439c-0.31 0.31-0.31 0.774 0 1.084l1.755 1.703h-6.968c-0.413 0-0.774 0.361-0.774 0.774s0.31 0.774 0.774 0.774h6.968l-1.703 1.703c-0.31 0.31-0.31 0.774 0 1.084s0.774 0.31 1.084 0l2.994-2.994c0.155-0.155 0.206-0.361 0.206-0.516s-0.052-0.361-0.206-0.516l-2.994-2.994c-0.361-0.361-0.826-0.361-1.135-0.103z"></path>
</symbol>
<symbol id="icon-left" viewBox="0 0 32 32">
<path fill="#ff9100" style="fill: var(--color1, #ff9100)" d="M11.303 32c-6.245 0-11.303-5.058-11.303-11.303v-9.394c0-6.245 5.058-11.303 11.303-11.303h9.394c6.245 0 11.303 5.058 11.303 11.303v9.394c0 6.245-5.058 11.303-11.303 11.303h-9.394z"></path>
<path fill="#ff7900" style="fill: var(--color2, #ff7900)" d="M20.697 0c6.245 0 11.303 5.058 11.303 11.303v9.394c0 6.245-5.058 11.303-11.303 11.303h-9.394c-6.245 0-11.303-5.058-11.303-11.303z"></path>
<path fill="#ff6700" style="fill: var(--color3, #ff6700)" d="M32 20.697c0 6.245-5.058 11.303-11.303 11.303h-9.394c-6.245 0-11.303-5.058-11.303-11.303z"></path>
<path fill="#ff6700" style="fill: var(--color3, #ff6700)" d="M14.297 19.561c0.31-0.31 0.31-0.774 0-1.084l-1.755-1.755h7.019c0.413 0 0.774-0.361 0.774-0.774s-0.31-0.774-0.774-0.774h-6.968l1.703-1.703c0.31-0.31 0.31-0.774 0-1.084s-0.774-0.31-1.084 0l-2.994 2.994c-0.155 0.155-0.206 0.361-0.206 0.516s0.052 0.361 0.206 0.516l2.994 2.994c0.31 0.413 0.826 0.413 1.084 0.155z"></path>
<path fill="#fff" style="fill: var(--color4, #fff)" d="M15.174 19.561c0.31-0.31 0.31-0.774 0-1.084l-1.755-1.703h6.968c0.413 0 0.774-0.361 0.774-0.774s-0.31-0.774-0.774-0.774h-6.968l1.703-1.703c0.31-0.31 0.31-0.774 0-1.084s-0.774-0.31-1.084 0l-2.994 2.994c-0.155 0.155-0.206 0.361-0.206 0.516s0.052 0.361 0.206 0.516l2.994 2.994c0.361 0.361 0.826 0.361 1.135 0.103z"></path>
</symbol>
</defs>
</svg>