<svg aria-hidden="true" style="position: absolute; width: 0; height: 0; overflow: hidden;" version="1.1" xmlns="http://www.w3.org/2000/svg" xmlns:xlink="http://www.w3.org/1999/xlink">
<defs>
<symbol id="icon-ing" viewBox="0 0 32 32">
<path fill="#ff6200" style="fill: var(--color1, #ff6200)" d="M21.76 25.6h-11.52c-2.12 0-3.838-1.718-3.838-3.838v0-11.521c0-2.12 1.718-3.838 3.838-3.838v0h11.52c2.12 0 3.838 1.718 3.838 3.838v0 11.52c0 0 0 0.001 0 0.002 0 2.12-1.718 3.838-3.838 3.838v0z"></path>
<path fill="#fff" style="fill: var(--color2, #fff)" d="M13.576 25.429c-0.063 0.062-0.132 0.118-0.206 0.166l-0.005 0.003h-0.305c-0.142-0.426-0.311-0.792-0.514-1.136l0.015 0.027s1.174-0.471 1.485-0.471c0.079 0.159 0.157 0.392 0.314 0.547-0.157 0.156-0.625 0.629-0.783 0.863zM14.203 15.495c0-0.47 0.157-0.47 0.078-0.625s-0.704 0-0.86 0c-0.391 0.076-1.096 0.312-1.096 0.467-0.076 0.233-0.076 0.781-0.076 0.859 0.078 0.235 0.078 0.469 0.157 0.704 0.231-0.235 0.312-0.314 0.469-0.392 0.077-0.077 0.938-0.704 1.016-0.781 0.154-0.157 0.233-0.080 0.312-0.235zM11.933 19.799v0.39c0 0.155 0.077 1.016 0.077 1.253 0.080 0.235 0.080 0.467 0.159 0.704 0.077 0.157 0.155 0.312 0.155 0.47 0.1-0.055 0.18-0.135 0.234-0.232l0.002-0.003c0.234-0.235 0.313-0.472 0.47-0.784-0.080-0.545-0.236-1.016-0.236-1.172 0-0.626 0.079-0.783 0.156-1.174-0.314 0.152-0.702 0.388-1.017 0.545zM16.392 8.921c0.078 0.157 1.016 0.704 1.411 0.94 0.313 0.236 0.625 0.314 0.938 0.47 0.207-0.29 0.368-0.629 0.463-0.995l0.005-0.021c0.236 0.157 0.549 0.157 0.783 0.235 0 0.313 0 0.627 0.078 0.939 0 0.157 0.155 0.079 0.47-0.077 0.47-0.159 0.938-0.235 1.174-0.313 0.549-0.313 0.861-0.939 1.329-0.939 0.392 0 1.097 0.234 1.253 0.39 0.234 0.078 0.392 0.155 0.624 0.155s0.411-0.161 0.585-0.31q-0.041-0.18-0.098-0.352c-0.625-0.402-1.298-0.79-1.972-1.058-0.47 0.391-0.783 0.704-1.019 0.704s-0.078-0.469-0.078-0.781c-0.235 0-0.388 0-0.625-0.079-0.155 0.547-0.236 1.252-0.627 1.411-0.085 0.049-0.186 0.078-0.294 0.078-0.006 0-0.013-0-0.019-0l0.001 0v-0.633c0-0.078 0.313-0.626 0.236-0.704 0 0-0.704 0.157-0.862 0.235-0.078 0.078-0.546 0.313-0.625 0.313-0.089-0.033-0.195-0.061-0.304-0.078l-0.010-0.001c-0.234-0.156-0.39-0.156-0.625-0.312-0.313 0.939-0.391 1.173-0.391 1.016 0 0-1.095-0.706-1.488-1.175-1.016 0.157-1.016 0.313-1.877 0.626-0.314 0.312-0.783 0.704-1.093 1.175-0.159 0.313-0.314 0.467-0.471 0.782l0.781 0.312c0.187-0.229 0.368-0.484 0.531-0.751l0.017-0.030c0.549-0.311 1.487-0.86 1.799-1.174zM15.613 22.455c-0.080-0.155-0.315-0.235-0.47-0.312-0.157 0-0.314 0.312-0.314 0.626 0.023 0.344 0.079 0.663 0.165 0.971l-0.008-0.033c0 0.077 0.157 0.157 0.313 0.234 0.235 0.157 0.47 0.238 0.704 0.395 0 0-0.235-0.705-0.312-1.095-0.077-0.236 0.077-0.55-0.077-0.785zM12.636 24.098s0.238-0.157 0.238-0.314c0.391-0.468 0.861-0.859 0.938-0.938-0.155-0.391-0.235-0.468-0.469-0.703-0.078 0.077-0.469 0.312-0.547 0.47-0.159 0.077-0.313 0.156-0.39 0.233 0 0.158 0.077 0.235 0.156 0.395 0 0.153 0.075 0.543 0.075 0.857zM14.124 16.665c-0.782 0.235-1.33 0.392-1.488 0.547-0.389 0.237-0.545 0.395-0.936 0.625 0 0.471 0 0.471 0.077 0.707l0.080 0.939c0.154-0.235 0.625-0.704 0.86-1.016 0.346-0.386 0.762-0.701 1.228-0.929l0.024-0.010c0.077-0.316 0.156-0.549 0.156-0.862zM13.030 11.345c-0.157 0.233-0.157 0.469-0.157 0.703 0 0.39 0.077 0.703 0.157 1.173-0.314 0.234-0.47 0.391-0.783 0.546 0.078 0.472 0.157 1.333 0.157 1.333 0.156-0.234 0.156-0.234 0.312-0.392 0.314-0.234 0.468-0.395 0.86-0.703 0.080-0.157 0.159-0.079 0.392-0.238 0.077-0.077 0.156-0.155 0.156-0.231 0-0.159-0.079-0.314-0.156-0.471s-0.234-0.549-0.234-0.627c0-0.624 0.076-0.781 0.154-1.329-0.313-0.078-0.704-0.078-0.859 0.235zM20.932 24.020c-0.311 0.078-0.938 0.159-0.938 0.392-0.078 0.234 0 0.47 0 0.625 0.078 0.159 0.078 0.314 0.078 0.549v0.014h0.592c0.14-0.2 0.275-0.349 0.348-0.564 0.075-0.23-0.002-0.623-0.081-1.014zM17.959 21.049c0.079 0.326 0.187 0.612 0.324 0.879l-0.010-0.022c0.079 0 0.157 0.159 0.234 0.159 0.157-0.159 0.314-0.391 0.549-0.471v0.312c0 0.236 0 0.395 0.078 0.627 0 0.235 0.235 0.235 0.545 0.235s0.392-0.549 0.392-0.626c0 0 0.078 0.312 0.549 0.547 0 0 0.547 0 0.547-0.077 0.079-0.395 0.156-0.47 0.079-0.784 0 0 0.468 0.314 0.705 0.626 0.154-0.155 0.312-0.468 0.312-0.549 0.154-0.312 0.154-0.703 0.154-1.016-0.625-0.391-1.407-0.468-2.191-0.468-0.704 0.001-1.488 0.078-2.27 0.628zM19.29 24.567c-0.074-0.14-0.218-0.233-0.384-0.233-0.004 0-0.008 0-0.012 0h0.001c-0.155 0-0.546-0.236-0.546-0.079-0.395 0-0.079 0.391-0.079 0.627 0 0.169 0.226 0.473 0.437 0.718h0.725c-0.031-0.095-0.054-0.206-0.064-0.321l-0-0.006c-0.078-0.235 0.001-0.467-0.078-0.704zM23.436 18.544c0.603 0 1.301 0.139 2.164 0.491v0.525c-0.859-0.346-1.648-0.421-2.085-0.547v0.627c0.313 0.078 0.469 0.235 0.782 0.313 0.117 0.056 0.802 0.422 1.303 0.7v0.546c-0.95-0.582-1.609-0.808-2.401-1.168-0.156 0.157-0.233 0.395-0.468 0.548-0.079 0.077-0.627-0.391-0.94-0.548-0.233-0.155-0.704-0.233-1.016-0.313-0.076 0-0.076-0.155-0.076-0.234-0.078-0.235-0.158-0.471-0.078-0.549 0.391-0.156 0.547-0.47 0.547-0.703s0.233 0.077 0.47 0c0.155-0.157 0.235-0.313 0.155-0.471 0-0.155-0.077-0.311-0.233-0.311-0.359-0.15-0.776-0.236-1.214-0.236s-0.855 0.087-1.235 0.244l0.021-0.008c-0.236 0.076-0.236 0.388-0.158 0.624 0.080 0.313 0.395 0.157 0.627 0 0.076 0-0.079 0.235 0.076 0.471 0.157 0.313 0.47 0.39 0.47 0.468 0 0.236 0 0.236-0.078 0.391 0 0.159 0 0.314-0.156 0.395-0.47 0.078-0.86 0.233-1.331 0.39-0.234 0.078-0.468 0.314-0.704 0.314-0.156 0-0.313-0.314-0.39-0.392-0.158 0-0.158-0.079-0.47 0-1.045 0.437-1.919 0.882-2.755 1.384l0.096-0.053c-0.157-0.159-0.079-0.39-0.157-0.549 0.779-0.499 1.68-0.97 2.622-1.364l0.118-0.044c0.077-0.080 0-0.313-0.080-0.471 0 0-0.548-0.078-1.565 0.236-0.621 0.155-1.329 0.548-1.411 0.548-0.049-0.162-0.078-0.348-0.078-0.541 0-0.002 0-0.005 0-0.007v0c0.406-0.212 0.897-0.424 1.404-0.603l0.084-0.026c0.549-0.157 1.096-0.157 1.645-0.235-0.080 0-0.080-0.155-0.080-0.235-0.234-0.468-0.625-0.859-1.016-1.251-0.157-0.314-0.314-0.704-0.314-0.859 0.157-0.159 0.314 0.077 0.548 0.077-0.092-0.256-0.148-0.551-0.155-0.859l-0-0.003c-0.078-0.313-0.078-0.313-0.078-0.704 0-0.47 0.155-0.703 0.078-0.784s-0.395-0.231-0.471-0.231c-0.157-0.080-0.234-0.080-0.312-0.235-0.235-0.392-0.468-0.704-0.468-1.096s0.154-0.705 0.31-1.096c0.078-0.313 0.47-0.47 0.705-0.627s0.467-0.077 0.703-0.077c0.549 0 1.016 0.312 1.411 0.546 0.272 0.211 0.468 0.509 0.545 0.852l0.002 0.010h0.704c0.391 0.077 0.781 0.157 1.251 0.391 0.546-0.469 1.486-0.548 1.957-0.548 0-0.86 0.625-1.33 1.092-1.33 0.395-0.080 0.629-0.156 1.176 0.079 0.39 0.234 0.938 1.016 0.938 1.094 0.159 0.314 0.078 0.705 0.078 1.175-0.050 0.187-0.078 0.401-0.078 0.622 0 0.001 0 0.003 0 0.004v-0c-0.076 0.312-0.468 0.547-0.703 0.625 0 0.548-0.157 0.861-0.235 1.329 0 0.236-0.078 0.471-0.156 0.704 0.234-0.078 0.314-0.233 0.546-0.233-0.155 1.016-0.39 0.859-0.624 1.33-0.101 0.36-0.261 0.673-0.473 0.945l0.005-0.006c-0.116 0.114-0.245 0.217-0.383 0.306l-0.009 0.006c-0.157 0.078 0 0.156 0 0.236zM16.945 12.598c0.156-0.159 0.624-0.471 0.624-0.471 0.077 0 0.077-0.078 0.077-0.155-0.155-0.549-0.313-0.549-0.625-0.705-0.136-0.099-0.307-0.158-0.492-0.158-0.020 0-0.039 0.001-0.059 0.002l0.003-0c-0.314 0.077-0.859 0.235-1.016 0.704 0 0.077-0.079 0.391 0.158 0.702 0.155 0.314 0.468 0.549 0.625 0.706 0.23 0 0.308-0.392 0.701-0.625zM18.586 18.934c-0.155-0.077-0.313-0.077-0.468-0.077-0.199 0.008-0.387 0.036-0.569 0.081l0.019-0.004c0.044 0.181 0.098 0.337 0.164 0.487l-0.007-0.018c0.234-0.077 0.313-0.155 0.47-0.233-0.002 0 0.31-0.158 0.388-0.236zM19.211 14.709c0-0.157-0.155-0.315-0.39-0.395h-1.016c-0.395 0-0.705 0-1.098 0.077 0.157 0.315 0.549 0.628 0.704 0.785s0.314 0.313 0.627 0.313c0.313-0.078 0.313 0 0.468-0.078 0 0.156 0.078 0.391 0 0.546 0 0.081 0.078 0.705-0.234 0.783-0.234 0.078-0.547 0.236-0.704 0.469s-0.235 0.625 0 0.784c0.157 0.077 0.313-0.159 0.549-0.236s0.234-0.235 0.313-0.468c0.155-0.158 0.468-0.235 0.546-0.392v-0.235c0.080-0.705 0.080-0.861 0.158-1.331-0.001-0.075 0.074-0.543 0.074-0.622zM19.68 12.831c0-0.155-0.31-0.078-0.469 0-0.155 0-0.39 0.157-0.625 0.312-0.234 0.235-0.391 0.314-0.391 0.548h0.391c0.391 0 0.471 0.158 0.625-0.077 0.234-0.312 0.467-0.471 0.467-0.783zM22.968 12.127c0.549 0.157 0.939 0.471 1.33 0.939 0.251-0.003 0.465-0.163 0.546-0.386l0.001-0.004c0.077-0.392 0.156-1.016-0.078-1.33-0.157-0.158-0.235-0.235-0.625-0.314-0.069-0.019-0.148-0.031-0.23-0.031-0.247 0-0.471 0.102-0.631 0.265l-0 0c-0.157 0.234-0.393 0.548-0.315 0.86zM21.325 13.143c0.156 0 0.156 0.314 0.156 0.471 0.395 0 0.785 0.077 0.939-0.077 0.862-0.395-0.466-0.706-0.625-0.706-0.392-0.078-1.172-0.314-0.861 0-0.002 0.157 0.234 0.157 0.389 0.312zM22.968 18.934c-0.235-0.077-0.47-0.235-0.94-0.156-0.076 0.078-0.076 0.078-0.076 0.312 0.388 0 0.625 0.235 0.938 0.312-0.002 0 0.076-0.391 0.076-0.468zM23.438 17.523c0.313 0-0.392-0.313-0.704-0.546-0.062-0.009-0.115-0.037-0.156-0.079l-0-0c-0.159-0.157-0.236-0.469-0.549-0.547-0 0-0 0-0 0-0.042 0-0.076-0.034-0.076-0.076 0-0.002 0-0.004 0-0.005v0c0-0.231-0.080-1.171-0.080-1.171 0.155 0.312 0.468 0.312 0.625 0.312 0.314 0 0.547-0.080 0.703-0.312 0-0.080 0.080-0.234 0.156-0.234 0.16-0.080 0.314-0.158 0.395-0.315 0.080 0 0.157-0.158 0.157-0.158-0.706-0.077-2.191-0.077-2.191-0.077-0.236 0.077-0.468 0.314-0.468 0.395 0 0 0.154 0.861 0.154 0.938 0 0.549 0.078 0.549 0.078 1.096 0.236 0.157 0.313 0.157 0.472 0.314 0.076 0.155 0.154 0.312 0.235 0.468 0.311 0.157 0.703 0.312 0.939 0.548 0.071-0.001 0.308-0.391 0.308-0.549zM23.986 24.332c-0.156-0.155 0.156-0.705-0.235-0.705-0.157-0.077-0.624-0.235-0.624-0.235-0.081 0.235-0.081 0.704 0 0.94 0 0.172 0.212 0.601 0.386 0.847 0.225-0.116 0.418-0.24 0.599-0.38l-0.009 0.007c-0.057-0.137-0.098-0.297-0.117-0.463l-0.001-0.008zM17.567 23.865s-0.077-0.395-0.157-0.548c-0.083-0.196-0.217-0.356-0.387-0.468l-0.004-0.002c-0.077 0-0.234-0.156-0.314-0.077 0 0-0.077 0.625-0.156 0.703 0.156 0.236 0.313 0.395 0.395 0.627s0.156 0.548 0.312 0.783c0.075-0.314 0.31-0.47 0.31-1.017zM22.55 25.518c-0.046-0.199-0.097-0.419-0.133-0.561v-1.251c-0.313 0.077-0.391 0.157-0.466 0.157-0.236 0.156-0.392 0.234-0.392 0.391 0 0.312 0.077 0.627 0.077 0.782 0 0.235 0 0.392 0.078 0.471 0.113 0.037 0.192 0.056 0.277 0.085 0.206-0.012 0.397-0.038 0.584-0.078l-0.025 0.004zM25.079 23.082c-0.159-0.077-0.159-0.077-0.391-0.077-0.081-0.078-0.236-0.078-0.314-0.078 0.066 0.303 0.147 0.564 0.248 0.815l-0.012-0.035c0.062 0.123 0.153 0.224 0.263 0.297l0.003 0.002c0.122-0.165 0.235-0.353 0.333-0.55l0.010-0.022c-0.084-0.151-0.139-0.286-0.139-0.352z"></path>
</symbol>
<symbol id="icon-linkedin" viewBox="0 0 32 32">
<path fill="#0077b5" style="fill: var(--color3, #0077b5)" d="M29.333 16c0 7.364-5.97 13.333-13.333 13.333s-13.333-5.97-13.333-13.333c0-7.364 5.97-13.333 13.333-13.333s13.333 5.97 13.333 13.333z"></path>
<path fill="#fff" style="fill: var(--color2, #fff)" d="M12.516 9.523c0 0.83-0.632 1.502-1.62 1.502-0.95 0-1.582-0.672-1.562-1.502-0.020-0.87 0.612-1.523 1.581-1.523s1.582 0.652 1.601 1.523zM9.413 21.879v-9.669h3.005v9.668l-3.005 0.001z"></path>
<path fill="#fff" style="fill: var(--color2, #fff)" d="M14.826 15.296c0-1.206-0.040-2.234-0.079-3.084h2.61l0.139 1.325h0.059c0.395-0.613 1.384-1.542 2.985-1.542 1.977 0 3.46 1.305 3.46 4.151v5.735h-3.005v-5.358c0-1.246-0.435-2.096-1.522-2.096-0.831 0-1.325 0.573-1.522 1.127-0.079 0.198-0.119 0.474-0.119 0.752v5.576h-3.005v-6.584h-0.001z"></path>
</symbol>
<symbol id="icon-mail" viewBox="0 0 32 32">
<path d="M0 4v24h32v-24h-32zM16.508 16.673c-0.125 0.105-0.309 0.166-0.506 0.166s-0.381-0.060-0.505-0.165l-12.497-9.674h26l-12.492 9.673zM5.944 12.144l4.345 3.685-7.289 7.171v-13l2.944 2.144zM12.456 17.666l1.022 0.867c0.677 0.576 1.573 0.893 2.523 0.893 0.952 0 1.849-0.317 2.526-0.893l1.020-0.865 7.454 7.333h-22l7.456-7.334zM21.712 15.83l7.288-5.83v13l-7.288-7.17z"></path>
</symbol>
<symbol id="icon-mongodb" viewBox="0 0 32 32">
<path fill="#13aa52" style="fill: var(--color4, #13aa52)" d="M32 16c0 8.837-7.163 16-16 16s-16-7.163-16-16c0-8.837 7.163-16 16-16s16 7.163 16 16z"></path>
<path fill="#fff" style="fill: var(--color2, #fff)" d="M20.277 14.045c-1.011-4.46-3.399-5.927-3.656-6.487-0.281-0.395-0.566-1.098-0.566-1.098-0.005-0.012-0.012-0.033-0.021-0.053-0.029 0.395-0.044 0.548-0.418 0.947-0.579 0.452-3.548 2.944-3.79 8.012-0.225 4.726 3.414 7.543 3.906 7.902l0.056 0.040v-0.003c0.003 0.024 0.156 1.125 0.264 2.292h0.386c0.106-0.953 0.248-1.788 0.436-2.607l-0.029 0.152 0.031-0.020c0.234-0.168 0.439-0.337 0.632-0.518l-0.004 0.004 0.023-0.020c1.046-0.967 2.927-3.202 2.909-6.767-0.004-0.63-0.061-1.243-0.167-1.839l0.010 0.066zM16.011 20.598s0-6.629 0.219-6.628c0.171 0 0.392 8.55 0.392 8.55-0.304-0.037-0.61-1.407-0.61-1.923z"></path>
</symbol>
<symbol id="icon-location" viewBox="0 0 32 32">
<path d="M25 13c0-4.971-4.029-9-9-9s-9 4.029-9 9v0c0 3.692 2.954 8.504 9 14.268 6.046-5.764 9-10.576 9-14.268zM16 30c-7.334-6.666-11-12.334-11-17 0-6.075 4.925-11 11-11s11 4.925 11 11v0c0 4.666-3.666 10.334-11 17z"></path>
<path d="M16 16c1.657 0 3-1.343 3-3s-1.343-3-3-3v0c-1.657 0-3 1.343-3 3s1.343 3 3 3v0zM16 18c-2.761 0-5-2.239-5-5s2.239-5 5-5v0c2.761 0 5 2.239 5 5s-2.239 5-5 5v0z"></path>
</symbol>
<symbol id="icon-gold-dot" viewBox="0 0 32 32">
<path fill="#f1b32b" style="fill: var(--color5, #f1b32b)" d="M32 16c0 8.837-7.163 16-16 16s-16-7.163-16-16c0-8.837 7.163-16 16-16s16 7.163 16 16z"></path>
<path fill="#fff" style="fill: var(--color2, #fff)" d="M15.75 4c-6.49 0-11.75 5.26-11.75 11.75s5.26 11.75 11.75 11.75 11.75-5.26 11.75-11.75c0-6.489-5.261-11.75-11.75-11.75v0zM15.75 24.57c-4.871 0-8.82-3.949-8.82-8.82s3.949-8.82 8.82-8.82v0c4.871 0 8.82 3.949 8.82 8.82s-3.949 8.82-8.82 8.82v0zM12.82 15.76l2.94 4.4 2.92-4.4-2.92-4.41-2.94 4.41z"></path>
</symbol>
<symbol id="icon-dark-dot" viewBox="0 0 32 32">
<path fill="#051d2d" style="fill: var(--color6, #051d2d)" d="M32 16c0 8.837-7.163 16-16 16s-16-7.163-16-16c0-8.837 7.163-16 16-16s16 7.163 16 16z"></path>
<path fill="#000" style="fill: var(--color7, #000)" d="M15.993 19.986c-3.862 0-6.993-3.131-6.993-6.993s3.131-6.993 6.993-6.993c3.862 0 6.993 3.131 6.993 6.993v0c-0.005 3.86-3.133 6.988-6.992 6.993h-0.001zM16 12.951c-0.027 0-0.049 0.022-0.049 0.049s0.022 0.049 0.049 0.049c0.027 0 0.049-0.022 0.049-0.049v0c-0.002-0.027-0.023-0.048-0.050-0.050h-0z"></path>
<path fill="#000" style="fill: var(--color7, #000)" d="M15.993 26.986c-3.862 0-6.993-3.131-6.993-6.993s3.131-6.993 6.993-6.993c3.862 0 6.993 3.131 6.993 6.993v0c-0.005 3.86-3.133 6.988-6.992 6.993h-0.001zM16 19.951c-0.027 0-0.049 0.022-0.049 0.049s0.022 0.049 0.049 0.049c0.027 0 0.049-0.022 0.049-0.049v0c-0.002-0.027-0.023-0.048-0.050-0.050h-0z"></path>
</symbol>
<symbol id="icon-code" viewBox="0 0 32 32">
<path fill="#f33052" style="fill: var(--color8, #f33052)" d="M1.354 4.29h29.29v17.875h-29.29v-17.875z"></path>
<path fill="#000" style="fill: var(--color7, #000)" d="M30 4.852v16.833h-28v-16.833h28zM30.5 2.852h-29c-0.825 0-1.5 0.675-1.5 1.5v17.833c0 0.825 0.675 1.5 1.5 1.5h29c0.825 0 1.5-0.675 1.5-1.5v-17.833c0-0.825-0.675-1.5-1.5-1.5v0z"></path>
<path fill="#494949" style="fill: var(--color9, #494949)" d="M13.5 23.686h5v4.458h-5v-4.458z"></path>
<path fill="#000" style="fill: var(--color7, #000)" d="M8.937 27.148h14.12v2h-14.12v-2z"></path>
<path fill="#000" style="fill: var(--color7, #000)" d="M13.5 23.686h4.172l-4.172 1.859z"></path>
<path fill="#fff" style="fill: var(--color2, #fff)" opacity="0.35" d="M2 4.852h8.5l-8.5 5.188z"></path>
<path fill="#fff" style="fill: var(--color2, #fff)" d="M9.857 13.963h1.016v0.184c0 0.742-0.136 1.222-0.406 1.439s-0.87 0.326-1.797 0.326c-1.052 0-1.699-0.172-1.941-0.516s-0.363-1.263-0.363-2.758c0-0.88 0.164-1.459 0.492-1.736s1.015-0.416 2.059-0.416c0.761 0 1.269 0.114 1.523 0.342s0.383 0.68 0.383 1.357l0.004 0.121h-1.016v-0.137c0-0.349-0.065-0.572-0.197-0.67s-0.432-0.146-0.9-0.146c-0.628 0-1.005 0.077-1.131 0.23s-0.189 0.609-0.189 1.367c0 1.021 0.057 1.625 0.17 1.812 0.113 0.188 0.48 0.281 1.1 0.281 0.503 0 0.829-0.052 0.979-0.156s0.225-0.333 0.225-0.688l-0.011-0.236z"></path>
<path fill="#fff" style="fill: var(--color2, #fff)" d="M13.725 10.487c0.969 0 1.593 0.161 1.871 0.482s0.418 1.041 0.418 2.158c0 1.221-0.14 1.991-0.42 2.309s-0.958 0.477-2.033 0.477c-0.969 0-1.595-0.157-1.879-0.471s-0.426-1.004-0.426-2.072c0-1.271 0.14-2.069 0.418-2.395s0.962-0.488 2.051-0.488zM13.646 11.354c-0.68 0-1.077 0.087-1.191 0.262s-0.172 0.779-0.172 1.812c0 0.766 0.067 1.227 0.201 1.383s0.529 0.234 1.186 0.234c0.628 0 1.004-0.088 1.129-0.264s0.188-0.709 0.188-1.6c0-0.893-0.060-1.421-0.178-1.584s-0.506-0.243-1.163-0.243z"></path>
<path fill="#fff" style="fill: var(--color2, #fff)" d="M16.697 15.866v-5.332h2.621c0.745 0 1.267 0.163 1.564 0.488s0.447 0.896 0.447 1.711c0 1.331-0.12 2.186-0.359 2.564s-0.78 0.568-1.621 0.568l-2.652 0.001zM17.709 15.014h1.441c0.484 0 0.798-0.111 0.939-0.334s0.213-0.714 0.213-1.475c0-0.787-0.063-1.287-0.191-1.5s-0.427-0.32-0.898-0.32h-1.504v3.629z"></path>
<path fill="#fff" style="fill: var(--color2, #fff)" d="M22.975 11.385v1.375h2.5v0.746h-2.5v1.508h2.66v0.852h-3.672v-5.332h3.648v0.852l-2.636-0.001z"></path>
</symbol>
<symbol id="icon-pl-flag" viewBox="0 0 32 32">
<path fill="#ff4b55" style="fill: var(--color10, #ff4b55)" d="M0 24.086c0 1.324 1.073 2.397 2.397 2.397h27.207c1.324 0 2.397-1.073 2.397-2.397v-8.086h-32v8.086z"></path>
<path fill="#f5f5f5" style="fill: var(--color11, #f5f5f5)" d="M29.603 5.517h-27.207c-1.324 0-2.397 1.073-2.397 2.397v8.086h32v-8.086c0-1.324-1.073-2.397-2.397-2.397z"></path>
</symbol>
<symbol id="icon-fr-flag" viewBox="0 0 32 32">
<path fill="#41479b" style="fill: var(--color12, #41479b)" d="M2.397 5.517c-1.324 0-2.397 1.073-2.397 2.397v16.172c0 1.324 1.073 2.397 2.397 2.397h8.27v-20.966h-8.27z"></path>
<path fill="#f5f5f5" style="fill: var(--color11, #f5f5f5)" d="M10.667 5.517h10.667v20.966h-10.667v-20.966z"></path>
<path fill="#ff4b55" style="fill: var(--color10, #ff4b55)" d="M29.603 5.517h-8.27v20.965h8.27c1.324 0 2.397-1.073 2.397-2.397v-16.172c0-1.324-1.073-2.397-2.397-2.397z"></path>
</symbol>
<symbol id="icon-uk-flag" viewBox="0 0 32 32">
<path fill="#41479b" style="fill: var(--color12, #41479b)" d="M29.603 5.517h-27.207c-1.324 0-2.397 1.073-2.397 2.397v16.172c0 1.324 1.073 2.397 2.397 2.397h27.207c1.324 0 2.397-1.073 2.397-2.397v-16.172c0-1.324-1.073-2.397-2.397-2.397z"></path>
<path fill="#f5f5f5" style="fill: var(--color11, #f5f5f5)" d="M31.967 7.518c-0.189-1.135-1.175-2-2.363-2h-0.624l-10.221 6.697v-6.697h-5.517v6.697l-10.221-6.697h-0.624c-1.189 0-2.175 0.865-2.363 2l8.736 5.724h-8.769v5.517h8.769l-8.736 5.724c0.189 1.135 1.175 2 2.363 2h0.624l10.221-6.697v6.697h5.517v-6.697l10.221 6.697h0.624c1.189 0 2.175-0.865 2.363-2l-8.736-5.724h8.769v-5.517h-8.769l8.736-5.724z"></path>
<path fill="#ff4b55" style="fill: var(--color10, #ff4b55)" d="M17.655 5.517h-3.31v8.828h-14.345v3.31h14.345v8.828h3.31v-8.828h14.345v-3.31h-14.345z"></path>
<path fill="#ff4b55" style="fill: var(--color10, #ff4b55)" d="M1.55 26.328l11.661-7.57h-2.027l-10.608 6.886c0.26 0.303 0.593 0.54 0.973 0.684z"></path>
<path fill="#ff4b55" style="fill: var(--color10, #ff4b55)" d="M21.649 18.759h-2.027l11.295 7.332c0.316-0.208 0.58-0.488 0.768-0.817l-10.036-6.514z"></path>
<path fill="#ff4b55" style="fill: var(--color10, #ff4b55)" d="M0.253 6.842l9.858 6.399h2.027l-11.171-7.251c-0.3 0.223-0.545 0.515-0.714 0.852z"></path>
<path fill="#ff4b55" style="fill: var(--color10, #ff4b55)" d="M20.785 13.241l10.627-6.898c-0.262-0.302-0.599-0.538-0.981-0.679l-11.673 7.577h2.027z"></path>
</symbol>
<symbol id="icon-call" viewBox="0 0 32 32">
<path d="M16 0c-8.837 0-16 7.163-16 16s7.163 16 16 16 16-7.163 16-16-7.163-16-16-16zM16 29.5c-7.456 0-13.5-6.044-13.5-13.5s6.044-13.5 13.5-13.5 13.5 6.044 13.5 13.5-6.044 13.5-13.5 13.5z"></path>
<path d="M20.445 23.998c0.356 0.001 3.555-2.364 3.555-2.666s-3.579-2.557-3.889-2.557-1.349 1.246-1.629 1.385c-0.281 0.139-2.031 0.089-3.981-1.861s-2.617-4.194-2.617-4.547 1.627-1.441 1.672-1.697-2.145-4.055-2.5-4.055-3.056 3.281-3.056 3.555 0.247 3.791 4.701 8.244 7.388 4.197 7.744 4.199z"></path>
</symbol>
<symbol id="icon-link" viewBox="0 0 32 32">
<path d="M14.633 19.347c0.253-0.253 0.41-0.603 0.41-0.99s-0.157-0.737-0.41-0.99v0c-0.712-0.712-1.152-1.695-1.152-2.781s0.44-2.070 1.152-2.781l4.715-4.713c0.712-0.712 1.695-1.152 2.781-1.152 2.172 0 3.933 1.761 3.933 3.933 0 1.086-0.44 2.070-1.152 2.781v0l-1.457 1.456c-0.253 0.253-0.41 0.603-0.41 0.99 0 0.773 0.627 1.4 1.4 1.4 0.387 0 0.737-0.157 0.99-0.41l1.457-1.456c1.219-1.219 1.972-2.902 1.972-4.761 0-3.719-3.015-6.734-6.734-6.734-1.859 0-3.543 0.754-4.761 1.972l-4.715 4.713c-1.219 1.219-1.972 2.902-1.972 4.761s0.754 3.543 1.972 4.761v0c0.547 0.547 1.433 0.547 1.98 0zM17.367 12.653c-0.253 0.253-0.41 0.603-0.41 0.99s0.157 0.737 0.41 0.99v0c0.712 0.712 1.152 1.695 1.152 2.781s-0.44 2.070-1.152 2.781l-4.667 4.667c-0.716 0.736-1.715 1.192-2.821 1.192-2.172 0-3.933-1.761-3.933-3.933 0-1.106 0.457-2.106 1.192-2.82l0.001-0.001 1.367-1.367c0.253-0.253 0.41-0.603 0.41-0.99 0-0.773-0.627-1.4-1.4-1.4-0.387 0-0.737 0.157-0.99 0.41l-1.365 1.367c-1.219 1.219-1.972 2.902-1.972 4.761 0 3.719 3.015 6.734 6.734 6.734 1.859 0 3.543-0.754 4.761-1.972l4.667-4.667c1.219-1.218 1.972-2.902 1.972-4.761s-0.754-3.543-1.972-4.761v0c-0.253-0.253-0.603-0.41-0.99-0.41s-0.737 0.157-0.99 0.41v0z"></path>
</symbol>
<symbol id="icon-gh" viewBox="0 0 32 32">
<path fill="#fff" style="fill: var(--color1, #fff)" d="M16 4.96c6.097 0 11.040 4.943 11.040 11.040s-4.943 11.040-11.040 11.040c-6.097 0-11.040-4.943-11.040-11.040s4.943-11.040 11.040-11.040z"></path>
<path fill="#000" style="fill: var(--color2, #000)" d="M16 2.667c-0.015-0-0.033-0-0.050-0-7.364 0-13.333 5.97-13.333 13.333 0 5.875 3.8 10.863 9.076 12.639l0.094 0.027c0.667 0.107 0.88-0.307 0.88-0.667v-2.253c-3.693 0.8-4.48-1.747-4.48-1.747-0.259-0.845-0.798-1.539-1.506-1.991l-0.014-0.009c-1.213-0.827 0.093-0.8 0.093-0.8 0.87 0.116 1.603 0.616 2.033 1.321l0.007 0.012c0.501 0.879 1.432 1.461 2.499 1.461 0.507 0 0.983-0.131 1.396-0.362l-0.015 0.007c0.065-0.703 0.374-1.324 0.84-1.787l0-0c-2.853-0.293-6.027-1.44-6.027-6.52-0.001-0.045-0.002-0.097-0.002-0.149 0-1.335 0.507-2.552 1.339-3.468l-0.004 0.004c-0.173-0.474-0.273-1.021-0.273-1.592 0-0.698 0.15-1.361 0.419-1.958l-0.012 0.030s1.12-0.36 3.667 1.333c1-0.28 2.148-0.44 3.333-0.44s2.334 0.161 3.424 0.461l-0.090-0.021c2.547-1.72 3.667-1.333 3.667-1.333 0.257 0.567 0.407 1.23 0.407 1.928 0 0.571-0.1 1.118-0.284 1.625l0.011-0.033c0.828 0.912 1.335 2.129 1.335 3.464 0 0.053-0.001 0.105-0.002 0.157l0-0.008c0 5.093-3.12 6.213-6.093 6.547 0.573 0.576 0.928 1.37 0.928 2.247 0 0.077-0.003 0.154-0.008 0.229l0.001-0.010v3.653c0 0.36 0.213 0.787 0.893 0.667 5.37-1.804 9.17-6.792 9.17-12.667 0-7.358-5.96-13.324-13.316-13.333h-0.001z"></path>
</symbol>
<symbol id="icon-redux" viewBox="0 0 32 32">
<path fill="#764abc" style="fill: var(--color13, #764abc)" d="M21.787 21.556c1.107-0.113 1.947-1.051 1.909-2.177s-0.993-2.027-2.138-2.027h-0.076c-1.184 0.038-2.1 1.013-2.061 2.177 0.038 0.563 0.267 1.051 0.611 1.389-1.298 2.515-3.283 4.354-6.261 5.893-2.023 1.051-4.123 1.426-6.223 1.164-1.718-0.225-3.054-0.976-3.894-2.215-1.222-1.839-1.336-3.828-0.305-5.818 0.725-1.426 1.871-2.477 2.596-3.003-0.153-0.488-0.382-1.314-0.496-1.914-5.536 3.941-4.963 9.271-3.283 11.785 1.26 1.877 3.818 3.040 6.643 3.040 0.763 0 1.527-0.075 2.291-0.263 4.887-0.938 8.59-3.791 10.689-8.032zM28.506 16.902c-2.901-3.341-7.177-5.18-12.064-5.18h-0.611c-0.344-0.676-1.069-1.126-1.871-1.126h-0.076c-1.183 0.038-2.099 1.013-2.061 2.177 0.038 1.126 0.992 2.027 2.138 2.027h0.076c0.84-0.037 1.565-0.563 1.871-1.276h0.687c2.901 0 5.65 0.826 8.132 2.44 1.909 1.239 3.283 2.853 4.047 4.804 0.649 1.576 0.611 3.115-0.076 4.429-1.069 1.989-2.863 3.078-5.23 3.078-1.527 0-2.978-0.45-3.741-0.788-0.42 0.375-1.183 0.976-1.718 1.351 1.642 0.751 3.321 1.163 4.925 1.163 3.665 0 6.375-1.989 7.406-3.979 1.107-2.177 1.031-5.93-1.832-9.121zM9.112 22.194c0.038 1.126 0.993 2.027 2.138 2.027h0.076c1.183-0.037 2.1-1.013 2.061-2.177-0.038-1.126-0.993-2.027-2.138-2.027h-0.076c-0.076 0-0.191 0-0.267 0.037-1.565-2.552-2.214-5.33-1.985-8.332 0.153-2.252 0.916-4.204 2.252-5.818 1.107-1.389 3.245-2.064 4.696-2.102 4.047-0.075 5.764 4.879 5.879 6.869 0.496 0.113 1.336 0.375 1.909 0.563-0.458-6.080-4.276-9.233-7.941-9.233-3.436 0-6.605 2.44-7.864 6.043-1.756 4.804-0.611 9.421 1.527 13.062-0.191 0.263-0.305 0.676-0.267 1.088v-0z"></path>
</symbol>
<symbol id="icon-react" viewBox="0 0 32 32">
<path fill="#00d8ff" style="fill: var(--color14, #00d8ff)" d="M26.31 10.978c-0.332-0.114-0.676-0.222-1.030-0.325 0.058-0.238 0.112-0.472 0.159-0.703 0.78-3.785 0.27-6.834-1.471-7.838-1.669-0.963-4.399 0.041-7.157 2.441-0.265 0.231-0.531 0.475-0.797 0.731-0.177-0.169-0.354-0.333-0.53-0.49-2.89-2.566-5.786-3.647-7.526-2.64-1.668 0.965-2.162 3.832-1.46 7.419 0.068 0.347 0.147 0.7 0.237 1.060-0.41 0.116-0.806 0.24-1.184 0.372-3.388 1.181-5.552 3.032-5.552 4.953 0 1.983 2.323 3.972 5.851 5.178 0.278 0.095 0.567 0.185 0.865 0.271-0.097 0.389-0.181 0.77-0.251 1.142-0.669 3.525-0.147 6.324 1.517 7.283 1.718 0.991 4.601-0.028 7.409-2.482 0.222-0.194 0.445-0.4 0.668-0.615 0.289 0.278 0.578 0.542 0.865 0.789 2.72 2.34 5.406 3.285 7.067 2.323 1.716-0.994 2.274-4 1.55-7.659-0.055-0.279-0.12-0.565-0.192-0.855 0.203-0.060 0.401-0.122 0.595-0.186 3.668-1.215 6.055-3.18 6.055-5.19 0-1.927-2.233-3.791-5.69-4.981v0zM25.515 19.851c-0.175 0.058-0.355 0.114-0.537 0.168-0.405-1.282-0.952-2.645-1.62-4.054 0.638-1.375 1.164-2.721 1.557-3.995 0.327 0.095 0.645 0.195 0.951 0.3 2.961 1.019 4.768 2.527 4.768 3.688 0 1.237-1.951 2.843-5.118 3.892v0zM24.2 22.455c0.32 1.618 0.366 3.080 0.154 4.223-0.191 1.027-0.574 1.712-1.048 1.987-1.008 0.584-3.165-0.175-5.491-2.176-0.267-0.229-0.535-0.474-0.805-0.734 0.902-0.986 1.803-2.133 2.682-3.406 1.547-0.137 3.009-0.362 4.334-0.668 0.065 0.263 0.123 0.522 0.173 0.774v0zM10.91 28.564c-0.985 0.348-1.77 0.358-2.244 0.084-1.009-0.582-1.429-2.829-0.857-5.844 0.066-0.345 0.144-0.7 0.234-1.062 1.311 0.29 2.762 0.498 4.312 0.624 0.885 1.246 1.813 2.391 2.747 3.394-0.204 0.197-0.408 0.385-0.61 0.561-1.242 1.085-2.486 1.855-3.582 2.242v0zM6.294 19.843c-1.56-0.533-2.849-1.226-3.732-1.983-0.794-0.68-1.194-1.355-1.194-1.902 0-1.165 1.737-2.651 4.635-3.662 0.352-0.123 0.72-0.238 1.101-0.347 0.4 1.303 0.926 2.664 1.56 4.041-0.642 1.398-1.175 2.781-1.579 4.099-0.272-0.078-0.536-0.161-0.79-0.247v0zM7.841 9.311c-0.601-3.073-0.202-5.392 0.803-5.974 1.071-0.62 3.438 0.264 5.933 2.479 0.159 0.142 0.32 0.29 0.48 0.443-0.93 0.998-1.848 2.135-2.726 3.373-1.505 0.139-2.946 0.364-4.27 0.664-0.083-0.335-0.157-0.664-0.22-0.986v0zM21.644 12.719c-0.317-0.547-0.642-1.081-0.973-1.6 1.021 0.129 1.999 0.3 2.918 0.51-0.276 0.884-0.62 1.808-1.024 2.755-0.29-0.551-0.597-1.107-0.921-1.665v0zM16.015 7.237c0.631 0.683 1.262 1.446 1.883 2.273-0.626-0.030-1.259-0.045-1.898-0.045-0.633 0-1.262 0.015-1.884 0.044 0.622-0.82 1.259-1.581 1.899-2.272v0zM10.35 12.729c-0.316 0.548-0.618 1.101-0.903 1.655-0.398-0.944-0.739-1.873-1.017-2.769 0.913-0.204 1.887-0.371 2.901-0.498-0.336 0.524-0.664 1.062-0.981 1.612v0zM11.36 20.898c-1.048-0.117-2.036-0.275-2.949-0.474 0.283-0.912 0.631-1.861 1.037-2.825 0.286 0.553 0.589 1.106 0.907 1.656h0c0.324 0.56 0.66 1.108 1.005 1.643v0zM16.053 24.777c-0.648-0.699-1.294-1.472-1.925-2.304 0.613 0.024 1.237 0.036 1.872 0.036 0.652 0 1.297-0.015 1.932-0.043-0.623 0.847-1.252 1.621-1.879 2.311v0zM22.578 17.55c0.428 0.975 0.788 1.918 1.075 2.815-0.928 0.212-1.93 0.382-2.985 0.509 0.332-0.526 0.66-1.070 0.982-1.628 0.326-0.565 0.636-1.131 0.928-1.695v0zM20.466 18.562c-0.5 0.867-1.014 1.695-1.535 2.477-0.95 0.068-1.931 0.103-2.93 0.103-0.996 0-1.964-0.031-2.897-0.091-0.542-0.792-1.067-1.622-1.564-2.481h0c-0.496-0.856-0.952-1.72-1.365-2.578 0.413-0.861 0.868-1.725 1.361-2.58l-0 0c0.494-0.857 1.014-1.683 1.552-2.47 0.952-0.072 1.928-0.109 2.914-0.109h0c0.991 0 1.968 0.038 2.919 0.11 0.529 0.781 1.046 1.605 1.542 2.462 0.502 0.867 0.963 1.725 1.38 2.567-0.416 0.857-0.875 1.724-1.375 2.59v0zM23.286 3.297c1.072 0.618 1.488 3.11 0.815 6.378-0.043 0.209-0.091 0.421-0.144 0.636-1.328-0.306-2.769-0.534-4.279-0.676-0.879-1.252-1.79-2.39-2.705-3.376 0.246-0.237 0.491-0.462 0.736-0.675 2.362-2.056 4.57-2.868 5.576-2.288v0zM16 13.101c1.578 0 2.858 1.279 2.858 2.857s-1.279 2.858-2.858 2.858-2.857-1.279-2.857-2.857c0-1.578 1.279-2.857 2.857-2.857v0z"></path>
</symbol>
<symbol id="icon-sass" viewBox="0 0 32 32">
<path fill="#cd6799" style="fill: var(--color15, #cd6799)" d="M26.11 17.572c-0.924 0.001-1.796 0.218-2.571 0.603l0.034-0.015c-0.232-0.378-0.426-0.814-0.559-1.276l-0.009-0.038c-0.046-0.214-0.072-0.46-0.072-0.712 0-0.137 0.008-0.272 0.023-0.405l-0.002 0.016c0.101-0.473 0.215-0.873 0.353-1.261l-0.021 0.069c-0.005-0.051-0.061-0.292-0.624-0.3s-1.048 0.107-1.1 0.256c-0.086 0.228-0.167 0.507-0.228 0.794l-0.007 0.040c-0.519 1.268-1.093 2.351-1.759 3.369l0.046-0.075c-0.293-0.473-0.466-1.046-0.466-1.659 0-0.143 0.009-0.285 0.028-0.423l-0.002 0.016c0.101-0.473 0.215-0.873 0.353-1.261l-0.021 0.069c-0.005-0.051-0.061-0.292-0.624-0.3s-1.048 0.107-1.1 0.256-0.118 0.5-0.235 0.834-1.483 3.386-1.841 4.173c-0.184 0.4-0.343 0.726-0.455 0.946v0c-0.006 0.016-0.013 0.029-0.021 0.042l0.001-0.001c-0.1 0.189-0.153 0.292-0.153 0.292v0.005c-0.077 0.138-0.159 0.266-0.2 0.266-0.033-0.125-0.051-0.268-0.051-0.415 0-0.161 0.022-0.318 0.064-0.466l-0.003 0.012c0.2-1.059 0.69-2.705 0.685-2.762 0-0.031 0.092-0.317-0.317-0.465-0.064-0.031-0.139-0.049-0.218-0.049-0.141 0-0.268 0.057-0.36 0.149v0c-0.036 0-0.061 0.087-0.061 0.087s0.445-1.851-0.849-1.851c-1.043 0.215-1.915 0.827-2.466 1.668l-0.009 0.015c-0.348 0.189-1.089 0.593-1.882 1.028-0.3 0.169-0.614 0.338-0.905 0.5-0.020-0.020-0.041-0.046-0.061-0.066-1.575-1.678-4.47-2.862-4.345-5.107 0.046-0.818 0.327-2.966 5.559-5.575 4.306-2.122 7.733-1.534 8.326-0.23 0.849 1.862-1.836 5.319-6.285 5.82-0.2 0.043-0.43 0.067-0.666 0.067-0.819 0-1.57-0.294-2.152-0.782l0.005 0.004c-0.235-0.256-0.271-0.271-0.358-0.22-0.143 0.077-0.051 0.307 0 0.44 0.344 0.614 0.91 1.069 1.588 1.259l0.018 0.004c0.543 0.123 1.166 0.193 1.806 0.193 1.234 0 2.406-0.261 3.466-0.732l-0.055 0.022c2.7-1.043 4.8-3.943 4.184-6.372-0.619-2.465-4.71-3.278-8.582-1.9-2.546 0.871-4.741 2.16-6.618 3.802l0.023-0.019c-2.133 1.995-2.47 3.728-2.332 4.455 0.5 2.578 4.051 4.255 5.472 5.5-0.072 0.041-0.138 0.077-0.194 0.107-0.711 0.353-3.421 1.77-4.1 3.268-0.767 1.7 0.123 2.915 0.711 3.079 0.306 0.076 0.657 0.12 1.018 0.12 1.545 0 2.903-0.801 3.681-2.011l0.010-0.017c0.481-0.728 0.768-1.621 0.768-2.582 0-0.638-0.127-1.247-0.356-1.803l0.011 0.031c-0.005-0.012-0.012-0.022-0.020-0.031l0 0 0.557-0.327c0.363-0.215 0.721-0.414 1.028-0.578-0.197 0.549-0.327 1.185-0.362 1.845l-0.001 0.017c-0.007 0.084-0.010 0.183-0.010 0.282 0 0.918 0.318 1.761 0.85 2.426l-0.006-0.008c0.16 0.139 0.371 0.223 0.601 0.223 0.026 0 0.052-0.001 0.078-0.003l-0.003 0c0.6 0 0.875-0.5 1.176-1.094 0.368-0.726 0.7-1.57 0.7-1.57s-0.414 2.281 0.711 2.281c0.409 0 0.823-0.532 1.008-0.8v0.005s0.010-0.015 0.031-0.051l0.066-0.107v-0.010c0.164-0.286 0.532-0.936 1.079-2.015 0.706-1.391 1.386-3.13 1.386-3.13 0.077 0.443 0.171 0.823 0.288 1.193l-0.017-0.063c0.191 0.519 0.388 0.951 0.611 1.366l-0.028-0.057c-0.164 0.23-0.266 0.358-0.266 0.358l0.005 0.005c-0.133 0.174-0.276 0.363-0.435 0.547-0.451 0.495-0.883 1.032-1.279 1.595l-0.035 0.052c-0.042 0.067-0.067 0.148-0.067 0.235 0 0.15 0.074 0.283 0.188 0.364l0.001 0.001c0.149 0.079 0.327 0.126 0.515 0.126 0.060 0 0.119-0.005 0.176-0.014l-0.006 0.001c0.376-0.022 0.726-0.106 1.049-0.243l-0.021 0.008c0.338-0.121 0.631-0.278 0.895-0.472l-0.010 0.007c0.518-0.362 0.852-0.956 0.852-1.628 0-0.041-0.001-0.082-0.004-0.122l0 0.006c-0.034-0.454-0.149-0.873-0.331-1.254l0.009 0.021c0.051-0.072 0.1-0.143 0.148-0.215 0.509-0.747 1.019-1.614 1.473-2.515l0.061-0.134c0.077 0.443 0.171 0.823 0.288 1.193l-0.017-0.063c0.155 0.439 0.323 0.81 0.52 1.164l-0.020-0.039c-0.646 0.501-1.156 1.147-1.485 1.891l-0.012 0.031c-0.322 0.931-0.072 1.35 0.4 1.447 0.029 0.002 0.064 0.003 0.098 0.003 0.237 0 0.46-0.058 0.657-0.16l-0.008 0.004c0.361-0.121 0.675-0.285 0.955-0.493l-0.009 0.007c0.601-0.36 1.007-0.993 1.043-1.724l0-0.005c-0.025-0.374-0.109-0.723-0.243-1.045l0.008 0.022c0.578-0.232 1.248-0.367 1.949-0.367 0.271 0 0.537 0.020 0.796 0.059l-0.029-0.004c2.434 0.286 2.915 1.805 2.823 2.445-0.091 0.469-0.375 0.859-0.765 1.090l-0.007 0.004c-0.169 0.107-0.225 0.143-0.21 0.22 0.020 0.113 0.1 0.107 0.245 0.087 0.741-0.235 1.278-0.893 1.332-1.684l0-0.006c0.077-1.5-1.355-3.145-3.887-3.13zM7.33 23.9c-0.808 0.88-1.933 1.212-2.419 0.931-0.522-0.3-0.317-1.6 0.675-2.532 0.563-0.508 1.184-0.976 1.845-1.385l0.055-0.032c0.118-0.072 0.292-0.174 0.5-0.3l0.056-0.031 0.123-0.077c0.093 0.299 0.146 0.643 0.146 0.999 0 0.943-0.374 1.799-0.982 2.428l0.001-0.001zM13.211 19.9c-0.281 0.685-0.869 2.44-1.227 2.342-0.307-0.082-0.5-1.412-0.061-2.726 0.239-0.671 0.563-1.252 0.966-1.768l-0.010 0.014c0.44-0.491 0.926-0.655 1.043-0.455-0.117 0.962-0.368 1.838-0.734 2.65l0.023-0.057zM18.064 22.222c-0.118 0.061-0.23 0.1-0.281 0.072-0.036-0.020 0.051-0.1 0.051-0.1s0.609-0.655 0.849-0.951c0.138-0.174 0.3-0.378 0.476-0.609v0.066c0 0.782-0.757 1.309-1.094 1.524zM21.808 21.368c-0.087-0.061-0.072-0.266 0.22-0.905 0.212-0.422 0.492-0.779 0.83-1.070l0.004-0.004c0.051 0.14 0.081 0.302 0.082 0.471v0c0 0.005 0 0.012 0 0.018 0 0.708-0.475 1.305-1.124 1.488l-0.011 0.003z"></path>
</symbol>
<symbol id="icon-css" viewBox="0 0 32 32">
<path fill="#264de4" style="fill: var(--color16, #264de4)" d="M15.986 31.919l-9.235-2.564-2.058-23.083h22.614l-2.060 23.079-9.26 2.567z"></path>
<path fill="#2965f1" style="fill: var(--color17, #2965f1)" d="M23.483 27.882l1.761-19.722h-9.243v21.797l7.483-2.075z"></path>
<path fill="#ebebeb" style="fill: var(--color18, #ebebeb)" d="M9.411 16.721l0.254 2.831h6.335v-2.831h-6.589z"></path>
<path fill="#ebebeb" style="fill: var(--color18, #ebebeb)" d="M8.901 10.991l0.257 2.831h6.841v-2.831h-7.099z"></path>
<path fill="#ebebeb" style="fill: var(--color18, #ebebeb)" d="M16 24.074l-0.012 0.003-3.153-0.851-0.202-2.258h-2.842l0.397 4.445 5.799 1.61 0.013-0.004v-2.945z"></path>
<path fill="#000" style="fill: var(--color7, #000)" d="M10.015 0h3.429v1.434h-1.995v1.434h1.995v1.434h-3.429v-4.302z"></path>
<path fill="#000" style="fill: var(--color7, #000)" d="M14.13 0h3.429v1.247h-1.995v0.249h1.995v2.868h-3.429v-1.309h1.995v-0.249h-1.995v-2.805z"></path>
<path fill="#000" style="fill: var(--color7, #000)" d="M18.244 0h3.429v1.247h-1.995v0.249h1.995v2.868h-3.429v-1.309h1.995v-0.249h-1.995v-2.805z"></path>
<path fill="#fff" style="fill: var(--color2, #fff)" d="M22.571 16.721l0.511-5.73h-7.092v2.831h3.989l-0.258 2.899h-3.732v2.831h3.486l-0.329 3.672-3.157 0.852v2.945l5.804-1.608 0.043-0.478 0.665-7.453 0.069-0.76z"></path>
</symbol>
<symbol id="icon-html" viewBox="0 0 32 32">
<path fill="#e44d26" style="fill: var(--color19, #e44d26)" d="M27.307 6.273l-2.060 23.079-9.261 2.567-9.235-2.564-2.058-23.083h22.614z"></path>
<path fill="#f16529" style="fill: var(--color20, #f16529)" d="M16 29.957l7.483-2.075 1.76-19.722h-9.243v21.797z"></path>
<path fill="#ebebeb" style="fill: var(--color18, #ebebeb)" d="M11.995 13.822h4.005v-2.831h-7.099l0.068 0.759 0.696 7.801h6.335v-2.831h-3.746l-0.259-2.899zM12.633 20.968h-2.842l0.397 4.445 5.799 1.61 0.013-0.004v-2.945l-0.012 0.003-3.153-0.851-0.202-2.258z"></path>
<path fill="#000" style="fill: var(--color7, #000)" d="M6.797 0h1.439v1.421h1.316v-1.421h1.439v4.304h-1.439v-1.441h-1.316v1.441h-1.439v-4.304zM12.882 1.427h-1.266v-1.427h3.972v1.427h-1.267v2.877h-1.439v-2.877h-0zM16.219 0h1.5l0.923 1.512 0.922-1.512h1.501v4.304h-1.433v-2.133l-0.99 1.53h-0.025l-0.99-1.53v2.133h-1.408v-4.304zM21.78 0h1.439v2.882h2.023v1.423h-3.462v-4.304z"></path>
<path fill="#fff" style="fill: var(--color2, #fff)" d="M15.99 19.552h3.486l-0.329 3.672-3.157 0.852v2.945l5.804-1.608 0.043-0.478 0.665-7.453 0.069-0.76h-6.581v2.831zM15.99 13.815v0.007h6.838l0.057-0.636 0.129-1.435 0.068-0.759h-7.092v2.824z"></path>
</symbol>
<symbol id="icon-js" viewBox="0 0 32 32">
<path fill="#f7df1e" style="fill: var(--color21, #f7df1e)" d="M0 0h32v32h-32v-32z"></path>
<path fill="#000" style="fill: var(--color7, #000)" d="M20.25 23.125c0.625 1.063 1.5 1.813 2.938 1.813 1.25 0 2.063-0.625 2.063-1.5 0-1-0.813-1.375-2.188-2l-0.75-0.313c-2.188-0.938-3.625-2.063-3.625-4.5 0-2.25 1.688-4 4.375-4 1.938 0 3.313 0.688 4.25 2.438l-2.313 1.5c-0.5-0.938-1.063-1.313-1.938-1.313s-1.438 0.563-1.438 1.313c0 0.875 0.563 1.25 1.875 1.813l0.75 0.313c2.563 1.125 4 2.188 4 4.75 0 2.688-2.125 4.188-5 4.188-2.813 0-4.625-1.313-5.5-3.063zM9.625 23.375c0.5 0.813 0.875 1.563 1.938 1.563 1 0 1.625-0.375 1.625-1.875v-10.375h3v10.25c0 3.125-1.813 4.5-4.5 4.5-2.438 0-3.813-1.25-4.5-2.75z"></path>
</symbol><symbol id="icon-embed2" viewBox="0 0 40 32">
<path d="M26 23l3 3 10-10-10-10-3 3 7 7z"></path>
<path d="M14 9l-3-3-10 10 10 10 3-3-7-7z"></path>
<path d="M21.916 4.704l2.171 0.592-6 22.001-2.171-0.592 6-22.001z"></path>
</symbol><symbol id="icon-node" viewBox="0 0 32 32">
<path fill="#689f63" style="fill: var(--color1, #689f63)" d="M15.865 32c-0.429 0-0.854-0.112-1.23-0.329l-3.915-2.318c-0.585-0.327-0.299-0.443-0.107-0.509 0.78-0.273 0.938-0.335 1.77-0.807 0.087-0.050 0.202-0.032 0.291 0.021l3.007 1.785c0.109 0.059 0.263 0.059 0.363 0l11.726-6.768c0.109-0.062 0.179-0.188 0.179-0.317v-13.531c0-0.135-0.070-0.255-0.181-0.323l-11.721-6.763c-0.109-0.065-0.252-0.065-0.361 0l-11.719 6.763c-0.114 0.065-0.186 0.191-0.186 0.32v13.531c0 0.129 0.070 0.252 0.182 0.314l3.211 1.855c1.743 0.872 2.809-0.156 2.809-1.189v-13.355c0-0.191 0.15-0.338 0.34-0.338h1.485c0.185 0 0.338 0.147 0.338 0.338v13.361c0 2.325-1.268 3.66-3.472 3.66-0.678 0-1.212 0-2.703-0.734l-3.076-1.773c-0.76-0.44-1.23-1.262-1.23-2.14v-13.531c0-0.881 0.47-1.702 1.23-2.137l11.738-6.771c0.743-0.42 1.729-0.42 2.466 0l11.723 6.774c0.757 0.437 1.23 1.256 1.23 2.137v13.531c0 0.878-0.473 1.697-1.23 2.137l-11.723 6.771c-0.376 0.217-0.801 0.329-1.236 0.329l0.001 0.006zM19.487 22.676c-5.131 0-6.206-2.355-6.206-4.331 0-0.188 0.151-0.338 0.34-0.338h1.515c0.167 0 0.308 0.122 0.335 0.287 0.229 1.543 0.91 2.322 4.012 2.322 2.471 0 3.522-0.558 3.522-1.869 0-0.754-0.299-1.315-4.139-1.691-3.211-0.317-5.195-1.024-5.195-3.593 0-2.366 1.996-3.775 5.339-3.775 3.754 0 5.615 1.303 5.85 4.103 0.009 0.097-0.026 0.191-0.091 0.261-0.065 0.068-0.156 0.109-0.25 0.109h-1.523c-0.159 0-0.296-0.112-0.329-0.264-0.367-1.623-1.253-2.143-3.663-2.143-2.697 0-3.011 0.939-3.011 1.644 0 0.854 0.37 1.104 4.009 1.585 3.604 0.478 5.316 1.154 5.316 3.687 0 2.554-2.131 4.018-5.847 4.018l0.017-0.014z"></path>
</symbol><symbol id="icon-eye" viewBox="0 0 32 32">
<path d="M16 6c-6.979 0-13.028 4.064-16 10 2.972 5.936 9.021 10 16 10s13.027-4.064 16-10c-2.972-5.936-9.021-10-16-10zM23.889 11.303c1.88 1.199 3.473 2.805 4.67 4.697-1.197 1.891-2.79 3.498-4.67 4.697-2.362 1.507-5.090 2.303-7.889 2.303s-5.527-0.796-7.889-2.303c-1.88-1.199-3.473-2.805-4.67-4.697 1.197-1.891 2.79-3.498 4.67-4.697 0.122-0.078 0.246-0.154 0.371-0.228-0.311 0.854-0.482 1.776-0.482 2.737 0 4.418 3.582 8 8 8s8-3.582 8-8c0-0.962-0.17-1.883-0.482-2.737 0.124 0.074 0.248 0.15 0.371 0.228v0zM16 13c0 1.657-1.343 3-3 3s-3-1.343-3-3 1.343-3 3-3 3 1.343 3 3z"></path>
</symbol><symbol id="icon-link" viewBox="0 0 32 32">
<path d="M13.757 19.868c-0.416 0-0.832-0.159-1.149-0.476-2.973-2.973-2.973-7.81 0-10.783l6-6c1.44-1.44 3.355-2.233 5.392-2.233s3.951 0.793 5.392 2.233c2.973 2.973 2.973 7.81 0 10.783l-2.743 2.743c-0.635 0.635-1.663 0.635-2.298 0s-0.635-1.663 0-2.298l2.743-2.743c1.706-1.706 1.706-4.481 0-6.187-0.826-0.826-1.925-1.281-3.094-1.281s-2.267 0.455-3.094 1.281l-6 6c-1.706 1.706-1.706 4.481 0 6.187 0.635 0.635 0.635 1.663 0 2.298-0.317 0.317-0.733 0.476-1.149 0.476z"></path>
<path d="M8 31.625c-2.037 0-3.952-0.793-5.392-2.233-2.973-2.973-2.973-7.81 0-10.783l2.743-2.743c0.635-0.635 1.664-0.635 2.298 0s0.635 1.663 0 2.298l-2.743 2.743c-1.706 1.706-1.706 4.481 0 6.187 0.826 0.826 1.925 1.281 3.094 1.281s2.267-0.455 3.094-1.281l6-6c1.706-1.706 1.706-4.481 0-6.187-0.635-0.635-0.635-1.663 0-2.298s1.663-0.635 2.298 0c2.973 2.973 2.973 7.81 0 10.783l-6 6c-1.44 1.44-3.355 2.233-5.392 2.233z"></path>
</symbol><symbol id="icon-vsc" viewBox="0 0 32 32">
<path fill="#0065a9" style="fill: var(--color1, #0065a9)" d="M30.767 3.484l-6.568-3.162c-0.76-0.366-1.669-0.212-2.265 0.385l-21.5 19.603c-0.578 0.527-0.578 1.438 0.001 1.964l1.756 1.596c0.473 0.43 1.186 0.462 1.696 0.075l25.892-19.642c0.869-0.659 2.116-0.039 2.116 1.051v-0.076c0-0.765-0.438-1.463-1.128-1.795z"></path>
<path fill="#007acc" style="fill: var(--color2, #007acc)" d="M30.767 28.477l-6.568 3.162c-0.76 0.366-1.669 0.212-2.265-0.385l-21.5-19.603c-0.578-0.527-0.578-1.438 0.001-1.964l1.756-1.597c0.473-0.43 1.186-0.462 1.696-0.075l25.892 19.642c0.869 0.659 2.116 0.039 2.116-1.051v0.076c0 0.765-0.438 1.463-1.128 1.795z"></path>
<path fill="#1f9cf0" style="fill: var(--color3, #1f9cf0)" d="M24.179 31.642c-0.76 0.366-1.669 0.211-2.266-0.386 0.735 0.735 1.992 0.214 1.992-0.825v-28.897c0-1.040-1.257-1.56-1.992-0.825 0.597-0.597 1.505-0.751 2.266-0.386l6.567 3.158c0.69 0.332 1.129 1.030 1.129 1.795v21.412c0 0.766-0.439 1.464-1.129 1.795l-6.567 3.158z"></path>
<path fill="#000" style="fill: var(--color4, #000)" opacity="0.25" d="M22.604 31.701c0.502 0.195 1.075 0.183 1.581-0.061l6.563-3.158c0.69-0.332 1.128-1.030 1.128-1.795v-21.412c0-0.766-0.439-1.464-1.128-1.795l-6.563-3.158c-0.665-0.32-1.443-0.242-2.027 0.183-0.083 0.061-0.163 0.128-0.237 0.203l-12.563 11.462-5.472-4.154c-0.509-0.387-1.222-0.355-1.695 0.075l-1.755 1.597c-0.579 0.526-0.579 1.437-0.001 1.964l4.746 4.33-4.746 4.33c-0.578 0.527-0.577 1.438 0.001 1.964l1.755 1.596c0.473 0.43 1.186 0.462 1.695 0.075l5.472-4.154 12.563 11.462c0.199 0.199 0.432 0.349 0.683 0.446zM23.912 8.744l-9.533 7.236 9.533 7.236v-14.472z"></path>
</symbol><symbol id="icon-figma" viewBox="0 0 32 32">
<path fill="#1abcfe" style="fill: var(--color5, #1abcfe)" d="M16 16c0-2.209 1.791-4 4-4s4 1.791 4 4c0 2.209-1.791 4-4 4s-4-1.791-4-4z"></path>
<path fill="#0acf83" style="fill: var(--color6, #0acf83)" d="M8 24c0-2.209 1.791-4 4-4h4v4c0 2.209-1.791 4-4 4s-4-1.791-4-4z"></path>
<path fill="#ff7262" style="fill: var(--color7, #ff7262)" d="M16 4v8h4c2.209 0 4-1.791 4-4s-1.791-4-4-4h-4z"></path>
<path fill="#f24e1e" style="fill: var(--color8, #f24e1e)" d="M8 8c0 2.209 1.791 4 4 4h4v-8h-4c-2.209 0-4 1.791-4 4z"></path>
<path fill="#a259ff" style="fill: var(--color9, #a259ff)" d="M8 16c0 2.209 1.791 4 4 4h4v-8h-4c-2.209 0-4 1.791-4 4z"></path>
</symbol><symbol id="icon-compass" viewBox="0 0 32 32">
<path fill="#fff" style="fill: var(--color10, #fff)" d="M6.575 0.438h18.849c3.389 0 6.137 2.748 6.137 6.137v18.849c0 3.389-2.748 6.137-6.137 6.137h-18.849c-3.389 0-6.137-2.748-6.137-6.137v-18.849c0-3.389 2.748-6.137 6.137-6.137z"></path>
<path fill="#a6a385" style="fill: var(--color11, #a6a385)" d="M16.436 27.059l-0.591-0.202c0 0 0.072-3.013-1.009-3.23-0.721-0.836 0.116-35.471 2.711-0.115 0 0-0.894 0.447-1.053 1.211-0.173 0.75-0.058 2.336-0.058 2.336z"></path>
<path fill="#499d4a" style="fill: var(--color12, #499d4a)" d="M16.753 24.146c0 0 5.177-3.403 3.965-10.483-1.168-5.147-3.922-6.834-4.225-7.483-0.332-0.461-0.649-1.269-0.649-1.269l0.216 14.318c0 0.015-0.447 4.383 0.692 4.917z"></path>
<path fill="#58aa50" style="fill: var(--color13, #58aa50)" d="M15.542 24.334c0 0-4.859-3.316-4.571-9.156 0.274-5.84 3.706-8.709 4.369-9.228 0.433-0.461 0.447-0.635 0.476-1.096 0.303 0.649 0.245 9.704 0.288 10.771 0.13 4.109-0.231 7.931-0.562 8.709z"></path>
</symbol><symbol id="icon-postman" viewBox="0 0 32 32">
<path fill="#ff6c37" style="fill: var(--color14, #ff6c37)" d="M31.869 18.032c1.12-8.766-5.071-16.781-13.822-17.901s-16.797 5.071-17.917 13.822c-1.12 8.75 5.071 16.781 13.822 17.917 8.766 1.12 16.781-5.071 17.917-13.837z"></path>
<path fill="#fff" style="fill: var(--color10, #fff)" d="M21.775 10.273l-6.751 6.751-1.904-1.904c6.639-6.639 7.295-6.063 8.654-4.847v0z"></path>
<path fill="#ff6c37" style="fill: var(--color14, #ff6c37)" d="M15.024 17.184c-0.048 0-0.080-0.016-0.112-0.048l-1.92-1.904c-0.064-0.064-0.064-0.16 0-0.224 6.751-6.751 7.455-6.111 8.878-4.831 0.032 0.032 0.048 0.064 0.048 0.112s-0.016 0.080-0.048 0.112l-6.751 6.735c-0.016 0.032-0.064 0.048-0.096 0.048zM13.344 15.12l1.68 1.68 6.511-6.511c-1.184-1.056-1.984-1.376-8.191 4.831v0z"></path>
<path fill="#fff" style="fill: var(--color10, #fff)" d="M16.96 18.959l-1.84-1.84 6.751-6.751c1.808 1.824-0.896 4.783-4.911 8.59z"></path>
<path fill="#ff6c37" style="fill: var(--color14, #ff6c37)" d="M16.96 19.119c-0.048 0-0.080-0.016-0.112-0.048l-1.84-1.84c-0.032-0.032-0.032-0.064-0.032-0.112s0.016-0.080 0.048-0.112l6.751-6.751c0.064-0.064 0.16-0.064 0.224 0 0.416 0.384 0.64 0.928 0.624 1.488-0.032 1.776-2.048 4.031-5.535 7.327-0.048 0.032-0.096 0.048-0.128 0.048v0zM15.344 17.12c1.024 1.040 1.456 1.456 1.616 1.616 2.688-2.56 5.295-5.183 5.311-6.991 0.016-0.416-0.144-0.832-0.416-1.152l-6.511 6.527z"></path>
<path fill="#fff" style="fill: var(--color10, #fff)" d="M13.152 15.168l1.36 1.36c0.032 0.032 0.032 0.064 0 0.096-0.016 0.016-0.016 0.016-0.032 0.016l-2.816 0.608c-0.144 0.016-0.272-0.080-0.304-0.224-0.016-0.080 0.016-0.16 0.064-0.208l1.632-1.632c0.032-0.032 0.080-0.048 0.096-0.016z"></path>
<path fill="#ff6c37" style="fill: var(--color14, #ff6c37)" d="M11.617 17.408c-0.24 0-0.416-0.192-0.416-0.432 0-0.112 0.048-0.224 0.128-0.304l1.632-1.632c0.096-0.080 0.224-0.080 0.32 0l1.36 1.36c0.096 0.080 0.096 0.224 0 0.32-0.032 0.032-0.064 0.048-0.112 0.064l-2.816 0.608c-0.032 0-0.064 0.016-0.096 0.016v0zM13.105 15.344l-1.568 1.568c-0.032 0.032-0.048 0.080-0.016 0.128 0.016 0.048 0.064 0.064 0.112 0.048l2.64-0.576-1.168-1.168z"></path>
<path fill="#fff" style="fill: var(--color10, #fff)" d="M25.342 6.53c-1.024-0.992-2.672-0.96-3.663 0.080s-0.96 2.672 0.080 3.663c0.848 0.816 2.128 0.96 3.135 0.352l-1.824-1.824 2.272-2.272z"></path>
<path fill="#ff6c37" style="fill: var(--color14, #ff6c37)" d="M23.551 11.153c-1.52 0-2.752-1.232-2.752-2.752s1.232-2.752 2.752-2.752c0.704 0 1.392 0.272 1.904 0.768 0.032 0.032 0.048 0.064 0.048 0.112s-0.016 0.080-0.048 0.112l-2.16 2.16 1.696 1.696c0.064 0.064 0.064 0.16 0 0.224-0.016 0.016-0.016 0.016-0.032 0.032-0.416 0.256-0.912 0.4-1.408 0.4zM23.551 5.986c-1.344 0-2.432 1.088-2.416 2.432 0 1.344 1.088 2.432 2.432 2.416 0.368 0 0.736-0.080 1.072-0.256l-1.68-1.664c-0.032-0.032-0.048-0.064-0.048-0.112s0.016-0.080 0.048-0.112l2.144-2.144c-0.432-0.368-0.976-0.56-1.552-0.56v0z"></path>
<path fill="#fff" style="fill: var(--color10, #fff)" d="M25.39 6.578l-0.032-0.032-2.288 2.256 1.808 1.808c0.176-0.112 0.352-0.24 0.496-0.384 1.024-1.008 1.024-2.64 0.016-3.647v0z"></path>
<path fill="#ff6c37" style="fill: var(--color14, #ff6c37)" d="M24.894 10.785c-0.048 0-0.080-0.016-0.112-0.048l-1.824-1.824c-0.032-0.032-0.048-0.064-0.048-0.112s0.016-0.080 0.048-0.112l2.272-2.272c0.064-0.064 0.16-0.064 0.224 0l0.048 0.032c1.072 1.072 1.072 2.8 0.016 3.887-0.16 0.16-0.336 0.304-0.528 0.416-0.048 0.016-0.080 0.032-0.096 0.032v0zM23.295 8.801l1.616 1.616c0.128-0.080 0.256-0.192 0.352-0.288 0.912-0.912 0.96-2.4 0.080-3.359l-2.048 2.032z"></path>
<path fill="#fff" style="fill: var(--color10, #fff)" d="M22.047 10.561c-0.384-0.384-1.008-0.384-1.392 0l-6.031 6.031 1.008 1.008 6.383-5.599c0.416-0.352 0.448-0.976 0.096-1.392-0.032-0.016-0.048-0.032-0.064-0.048v0z"></path>
<path fill="#ff6c37" style="fill: var(--color14, #ff6c37)" d="M15.616 17.76c-0.048 0-0.080-0.016-0.112-0.048l-1.008-1.008c-0.064-0.064-0.064-0.16 0-0.224l6.031-6.031c0.448-0.448 1.168-0.448 1.616 0s0.448 1.168 0 1.616c-0.016 0.016-0.032 0.032-0.048 0.048l-6.383 5.599c-0.016 0.032-0.048 0.048-0.096 0.048v0zM14.848 16.592l0.784 0.784 6.271-5.503c0.352-0.288 0.384-0.816 0.096-1.168s-0.816-0.384-1.168-0.096c-0.016 0.016-0.032 0.032-0.064 0.048l-5.919 5.935z"></path>
<path fill="#fff" style="fill: var(--color10, #fff)" d="M10.001 23.455c-0.064 0.032-0.096 0.096-0.080 0.16l0.272 1.152c0.064 0.16-0.032 0.352-0.208 0.4-0.128 0.048-0.272 0-0.352-0.096l-1.76-1.744 5.743-5.743 1.984 0.032 1.344 1.344c-0.32 0.272-2.256 2.144-6.943 4.495v0z"></path>
<path fill="#ff6c37" style="fill: var(--color14, #ff6c37)" d="M9.873 25.326c-0.128 0-0.256-0.048-0.336-0.144l-1.744-1.744c-0.032-0.032-0.048-0.064-0.048-0.112s0.016-0.080 0.048-0.112l5.743-5.743c0.032-0.032 0.080-0.048 0.112-0.048l1.984 0.032c0.048 0 0.080 0.016 0.112 0.048l1.344 1.344c0.032 0.032 0.048 0.080 0.048 0.128s-0.016 0.080-0.064 0.112l-0.112 0.096c-1.696 1.488-3.999 2.975-6.863 4.399l0.272 1.136c0.048 0.208-0.048 0.432-0.24 0.544-0.096 0.048-0.176 0.064-0.256 0.064zM8.113 23.327l1.648 1.632c0.048 0.080 0.144 0.112 0.224 0.064s0.112-0.144 0.064-0.224l-0.272-1.152c-0.032-0.144 0.032-0.272 0.16-0.336 2.832-1.424 5.119-2.895 6.799-4.351l-1.184-1.184-1.84-0.032-5.599 5.583z"></path>
<path fill="#fff" style="fill: var(--color10, #fff)" d="M6.514 24.702l1.376-1.376 2.048 2.048-3.263-0.224c-0.144-0.016-0.24-0.144-0.224-0.288 0-0.064 0.016-0.128 0.064-0.16v0z"></path>
<path fill="#ff6c37" style="fill: var(--color14, #ff6c37)" d="M9.937 25.518l-3.279-0.224c-0.24-0.016-0.4-0.224-0.384-0.464 0.016-0.096 0.048-0.192 0.128-0.256l1.376-1.376c0.064-0.064 0.16-0.064 0.224 0l2.048 2.048c0.048 0.048 0.064 0.112 0.032 0.176s-0.080 0.096-0.144 0.096v0zM7.889 23.551l-1.264 1.264c-0.048 0.032-0.048 0.112 0 0.144 0.016 0.016 0.032 0.032 0.064 0.032l2.832 0.192-1.632-1.632z"></path>
<path fill="#ff6c37" style="fill: var(--color14, #ff6c37)" d="M13.057 18.32c-0.096 0-0.16-0.080-0.16-0.16 0-0.048 0.016-0.080 0.048-0.112l1.552-1.552c0.064-0.064 0.16-0.064 0.224 0l1.008 1.008c0.048 0.048 0.064 0.096 0.048 0.16-0.016 0.048-0.064 0.096-0.128 0.112l-2.56 0.544c-0.016 0-0.032 0-0.032 0v0zM14.608 16.832l-1.056 1.056 1.728-0.368-0.672-0.688z"></path>
<path fill="#fff" style="fill: var(--color10, #fff)" d="M15.6 17.616l-1.76 0.384c-0.128 0.032-0.256-0.048-0.288-0.176-0.016-0.080 0-0.16 0.064-0.224l0.976-0.976 1.008 0.992z"></path>
<path fill="#ff6c37" style="fill: var(--color14, #ff6c37)" d="M13.808 18.16c-0.224 0-0.4-0.176-0.4-0.4 0-0.112 0.048-0.208 0.112-0.288l0.976-0.976c0.064-0.064 0.16-0.064 0.224 0l1.008 1.008c0.048 0.048 0.064 0.096 0.048 0.16-0.016 0.048-0.064 0.096-0.128 0.112l-1.76 0.384c-0.032 0-0.064 0-0.080 0v0zM14.608 16.832l-0.864 0.864c-0.032 0.032-0.032 0.064-0.016 0.096s0.048 0.048 0.096 0.048l1.472-0.32-0.688-0.688z"></path>
<path fill="#ff6c37" style="fill: var(--color14, #ff6c37)" d="M25.406 8.113c-0.032-0.096-0.144-0.144-0.24-0.112s-0.144 0.144-0.112 0.24c0 0.016 0.016 0.032 0.016 0.048 0.096 0.192 0.064 0.432-0.064 0.608-0.064 0.080-0.048 0.192 0.016 0.256 0.080 0.064 0.192 0.048 0.256-0.032 0.24-0.304 0.288-0.688 0.128-1.008v0z"></path>
</symbol>
<symbol id="icon-certificate" viewBox="0 0 32 32">
<path fill="#38abec" style="fill: var(--color1, #38abec)" d="M30.43 27.223h-28.86c-0.59 0-1.069-0.479-1.069-1.069v-20.309c0-0.59 0.478-1.069 1.069-1.069h28.86c0.59 0 1.069 0.479 1.069 1.069v20.309c0 0.59-0.479 1.069-1.069 1.069z"></path>
<path fill="#3e92dd" style="fill: var(--color2, #3e92dd)" d="M2.104 26.154v-20.309c0-0.59 0.479-1.069 1.069-1.069h-1.603c-0.59 0-1.069 0.479-1.069 1.069v20.309c0 0.59 0.479 1.069 1.069 1.069h1.603c-0.59 0-1.069-0.479-1.069-1.069z"></path>
<path fill="#e7ebec" style="fill: var(--color3, #e7ebec)" d="M28.292 24.551h-24.584c-0.295 0-0.534-0.239-0.534-0.534v-16.033c0-0.295 0.239-0.534 0.534-0.534h24.585c0.295 0 0.534 0.239 0.534 0.534v16.033c0 0.295-0.239 0.534-0.535 0.534z"></path>
<path fill="#ced7d9" style="fill: var(--color4, #ced7d9)" d="M4.777 24.017v-16.033c0-0.295 0.239-0.534 0.534-0.534h-1.603c-0.295 0-0.534 0.239-0.534 0.534v16.033c0 0.295 0.239 0.534 0.534 0.534h1.603c-0.295 0-0.534-0.239-0.534-0.534z"></path>
<path fill="#fdd349" style="fill: var(--color5, #fdd349)" d="M11.673 14.773l-2.046 0.624 2.212 6.482 0.494-1.863 1.529 1.172z"></path>
<path fill="#fdd349" style="fill: var(--color5, #fdd349)" d="M8.569 14.773l2.046 0.624-2.212 6.482-0.494-1.863-1.529 1.172z"></path>
<path fill="#ff5800" style="fill: var(--color6, #ff5800)" d="M13.862 13.862c0 2.066-1.675 3.741-3.741 3.741s-3.741-1.675-3.741-3.741c0-2.066 1.675-3.741 3.741-3.741s3.741 1.675 3.741 3.741z"></path>
<path fill="#fdd349" style="fill: var(--color5, #fdd349)" d="M12.259 13.862c0 1.181-0.957 2.138-2.138 2.138s-2.138-0.957-2.138-2.138c0-1.181 0.957-2.138 2.138-2.138s2.138 0.957 2.138 2.138z"></path>
<path fill="#fcb82d" style="fill: var(--color7, #fcb82d)" d="M11.19 15.466c-1.181 0-2.138-0.957-2.138-2.138 0-0.62 0.264-1.178 0.686-1.568-0.998 0.181-1.755 1.053-1.755 2.103 0 1.181 0.957 2.138 2.138 2.138 0.561 0 1.071-0.216 1.452-0.569-0.124 0.022-0.252 0.035-0.383 0.035z"></path>
<path fill="#6d888e" style="fill: var(--color8, #6d888e)" d="M24.818 11.724h-6.948c-0.443 0-0.802-0.359-0.802-0.802v0c0-0.443 0.359-0.802 0.802-0.802h6.948c0.443 0 0.802 0.359 0.802 0.802v0c0 0.443-0.359 0.802-0.802 0.802z"></path>
<path fill="#000" style="fill: var(--color9, #000)" d="M30.43 4.276h-28.86c-0.866 0-1.57 0.704-1.57 1.57v20.309c0 0.866 0.704 1.57 1.57 1.57h5.901c0.277 0 0.501-0.224 0.501-0.501s-0.224-0.501-0.501-0.501h-5.901c-0.313 0-0.568-0.255-0.568-0.568v-20.309c0-0.313 0.255-0.568 0.568-0.568h28.86c0.313 0 0.568 0.255 0.568 0.568v20.309c0 0.313-0.255 0.568-0.568 0.568h-20.803c-0.277 0-0.501 0.224-0.501 0.501s0.224 0.501 0.501 0.501h20.803c0.866 0 1.57-0.704 1.57-1.57v-20.309c0-0.866-0.704-1.57-1.57-1.57z"></path>
<path fill="#000" style="fill: var(--color9, #000)" d="M22.391 6.948h-18.683c-0.571 0-1.035 0.465-1.035 1.035v16.033c0 0.571 0.465 1.035 1.035 1.035h24.585c0.571 0 1.035-0.465 1.035-1.035v-16.033c0-0.571-0.465-1.035-1.035-1.035h-3.741c-0.277 0-0.501 0.224-0.501 0.501s0.224 0.501 0.501 0.501h3.741c0.018 0 0.033 0.015 0.033 0.033v16.033c0 0.018-0.015 0.033-0.033 0.033h-24.585c-0.018 0-0.033-0.015-0.033-0.033v-16.033c0-0.018 0.015-0.033 0.033-0.033h18.683c0.277 0 0.501-0.224 0.501-0.501s-0.224-0.501-0.501-0.501z"></path>
<path fill="#000" style="fill: var(--color9, #000)" d="M6.088 21.596c0.179 0.129 0.422 0.125 0.597-0.009l0.933-0.715 0.301 1.136c0.057 0.213 0.246 0.365 0.467 0.372 0.006 0 0.012 0 0.018 0 0.214 0 0.405-0.136 0.474-0.339l1.244-3.645 1.244 3.645c0.069 0.203 0.26 0.339 0.474 0.339 0.006 0 0.012-0 0.018-0 0.221-0.008 0.41-0.159 0.467-0.372l0.301-1.136 0.933 0.715c0.176 0.135 0.427 0.136 0.605 0.003 0.172-0.129 0.243-0.36 0.174-0.563l-1.371-4.020c0.858-0.777 1.398-1.899 1.398-3.145 0-2.339-1.903-4.242-4.242-4.242s-4.242 1.903-4.242 4.242c0 1.246 0.54 2.368 1.398 3.145l-1.371 4.020c-0.071 0.209 0.003 0.44 0.182 0.569zM12.854 19.784c-0.070-0.054-0.139-0.109-0.21-0.161-0.145-0.107-0.33-0.14-0.499-0.071-0.259 0.105-0.302 0.36-0.365 0.599l-0.733-2.149c0.376-0.084 0.734-0.218 1.065-0.394l0.743 2.177zM6.881 13.862c0-1.787 1.454-3.24 3.24-3.24s3.24 1.454 3.24 3.24-1.454 3.24-3.24 3.24-3.24-1.453-3.24-3.24zM9.197 18.002l-0.733 2.149c-0.063-0.239-0.107-0.493-0.365-0.599-0.169-0.069-0.355-0.037-0.499 0.071-0.071 0.053-0.14 0.108-0.21 0.161l0.743-2.177c0.332 0.177 0.689 0.311 1.065 0.394z"></path>
<path fill="#000" style="fill: var(--color9, #000)" d="M10.121 16.501c1.455 0 2.639-1.184 2.639-2.639s-1.184-2.639-2.639-2.639-2.639 1.184-2.639 2.639 1.184 2.639 2.639 2.639zM10.121 12.226c0.903 0 1.637 0.734 1.637 1.637s-0.734 1.637-1.637 1.637c-0.903 0-1.637-0.734-1.637-1.637s0.734-1.637 1.637-1.637z"></path>
<path fill="#000" style="fill: var(--color9, #000)" d="M25.62 14.43h-1.069c-0.277 0-0.501 0.224-0.501 0.501s0.224 0.501 0.501 0.501h1.069c0.277 0 0.501-0.224 0.501-0.501s-0.224-0.501-0.501-0.501z"></path>
<path fill="#000" style="fill: var(--color9, #000)" d="M17.069 18.639h1.603c0.277 0 0.501-0.224 0.501-0.501s-0.224-0.501-0.501-0.501h-1.603c-0.277 0-0.501 0.224-0.501 0.501s0.224 0.501 0.501 0.501z"></path>
<path fill="#000" style="fill: var(--color9, #000)" d="M22.948 15.432c0.277 0 0.501-0.224 0.501-0.501s-0.224-0.501-0.501-0.501h-1.603c-0.277 0-0.501 0.224-0.501 0.501s0.224 0.501 0.501 0.501h1.603z"></path>
<path fill="#000" style="fill: var(--color9, #000)" d="M17.069 15.432h2.672c0.277 0 0.501-0.224 0.501-0.501s-0.224-0.501-0.501-0.501h-2.672c-0.277 0-0.501 0.224-0.501 0.501s0.224 0.501 0.501 0.501z"></path>
<path fill="#000" style="fill: var(--color9, #000)" d="M25.62 17.637h-5.345c-0.277 0-0.501 0.224-0.501 0.501s0.224 0.501 0.501 0.501h5.345c0.277 0 0.501-0.224 0.501-0.501s-0.224-0.501-0.501-0.501z"></path>
<path fill="#000" style="fill: var(--color9, #000)" d="M24.818 9.62h-6.948c-0.718 0-1.303 0.584-1.303 1.303s0.584 1.303 1.303 1.303h6.948c0.718 0 1.303-0.584 1.303-1.303s-0.584-1.303-1.303-1.303zM24.818 11.223h-6.948c-0.166 0-0.301-0.135-0.301-0.301s0.135-0.301 0.301-0.301h6.948c0.166 0 0.301 0.135 0.301 0.301s-0.135 0.301-0.301 0.301z"></path>
<path fill="#000" style="fill: var(--color9, #000)" d="M17.069 21.846h4.276c0.277 0 0.501-0.224 0.501-0.501s-0.224-0.501-0.501-0.501h-4.276c-0.277 0-0.501 0.224-0.501 0.501s0.224 0.501 0.501 0.501z"></path>
<path fill="#000" style="fill: var(--color9, #000)" d="M25.62 20.843h-2.672c-0.277 0-0.501 0.224-0.501 0.501s0.224 0.501 0.501 0.501h2.672c0.277 0 0.501-0.224 0.501-0.501s-0.224-0.501-0.501-0.501z"></path>
</symbol><symbol id="icon-close" viewBox="0 0 32 32">
<path d="M26.667 2.667h-21.333c-1.467 0-2.667 1.2-2.667 2.667v21.333c0 1.467 1.2 2.667 2.667 2.667h21.333c1.467 0 2.667-1.2 2.667-2.667v-21.333c0-1.467-1.2-2.667-2.667-2.667zM22.533 20.8l-1.867 1.867-4.667-4.667-4.8 4.667-1.867-1.867 4.667-4.667-4.667-4.8 1.867-1.867 4.667 4.667 4.667-4.667 1.867 1.867-4.533 4.667 4.667 4.8z"></path>
</symbol>
</defs>
</svg>
